<?xml version="1.0" standalone="no"?>
<!DOCTYPE svg PUBLIC "-//W3C//DTD SVG 20010904//EN"
 "http://www.w3.org/TR/2001/REC-SVG-20010904/DTD/svg10.dtd">
<svg version="1.0" xmlns="http://www.w3.org/2000/svg"
 width="1497.000000pt" height="1600.000000pt" viewBox="0 0 1497.000000 1600.000000"
 preserveAspectRatio="xMidYMid meet">

<g transform="translate(0.000000,1600.000000) scale(0.100000,-0.100000)"
fill="#000000" stroke="none">
<path d="M7060 13262 c-13 -2 -38 -16 -55 -30 -30 -27 -30 -27 -23 -102 4 -41
12 -97 18 -125 6 -27 12 -95 14 -150 2 -55 8 -140 15 -190 6 -49 15 -139 20
-198 5 -59 14 -113 19 -120 5 -7 12 -76 14 -155 3 -87 10 -148 17 -155 6 -6
11 -40 11 -75 0 -58 -2 -65 -32 -93 -33 -30 -33 -30 -128 -25 -52 2 -117 9
-145 14 -27 4 -367 7 -755 5 -388 -2 -790 -3 -895 -3 -174 1 -192 -1 -212 -19
-23 -19 -23 -21 -23 -315 l0 -296 78 6 c42 3 154 21 247 41 94 19 219 38 279
43 60 5 148 14 195 20 291 36 1146 72 1341 56 79 -7 86 -9 98 -34 9 -20 12
-250 12 -1022 l0 -997 -24 -22 c-24 -23 -27 -23 -234 -20 -135 3 -214 8 -223
15 -9 7 -86 13 -204 17 -108 3 -203 10 -219 16 -17 7 -82 14 -145 18 -64 3
-135 11 -159 19 -23 8 -76 14 -116 14 -40 0 -95 7 -122 15 -27 8 -66 15 -87
15 -23 0 -49 8 -63 19 -28 22 -268 81 -329 81 -13 0 -25 4 -27 8 -3 7 -80 25
-263 62 -22 4 -96 20 -165 35 -150 32 -159 33 -235 41 -33 4 -73 13 -89 21
-16 8 -64 16 -108 18 -44 2 -85 8 -91 14 -6 6 -27 11 -46 11 -20 0 -45 7 -55
15 -13 10 -43 15 -87 15 -47 0 -72 5 -83 15 -8 8 -32 15 -53 15 -22 0 -48 7
-59 15 -22 17 -174 21 -174 5 0 -5 -6 -10 -13 -10 -8 0 -24 -9 -37 -20 -13
-11 -29 -20 -35 -20 -7 0 -18 -7 -25 -15 -7 -8 -18 -15 -26 -15 -7 0 -28 -13
-46 -30 -18 -16 -40 -30 -50 -30 -10 0 -18 -4 -18 -9 0 -8 -90 -69 -123 -83
-9 -4 -23 -12 -30 -18 -47 -40 -62 -50 -72 -50 -7 0 -15 -7 -19 -15 -3 -8 -10
-15 -17 -15 -6 0 -28 -13 -49 -30 -21 -16 -43 -30 -49 -30 -6 0 -19 -7 -28
-16 -10 -8 -49 -37 -88 -64 -38 -27 -77 -56 -86 -65 -9 -8 -23 -15 -31 -15 -9
0 -21 -7 -28 -15 -7 -8 -20 -15 -30 -15 -10 0 -20 -7 -24 -15 -3 -8 -13 -15
-23 -15 -31 0 -94 -66 -100 -105 -5 -34 -2 -39 119 -158 68 -67 224 -223 346
-347 121 -124 256 -259 299 -300 43 -41 104 -106 134 -145 31 -38 114 -127
185 -197 71 -70 152 -153 179 -184 28 -31 64 -73 81 -93 18 -20 57 -63 88 -97
31 -33 69 -80 85 -105 27 -40 29 -45 14 -61 -8 -9 -71 -44 -139 -77 -142 -68
-197 -104 -265 -172 -27 -27 -60 -51 -74 -55 -14 -3 -25 -10 -25 -14 0 -5 -14
-12 -32 -15 -27 -6 -86 -39 -123 -68 -5 -4 -48 -33 -95 -63 -47 -31 -107 -78
-133 -105 -26 -27 -57 -49 -67 -49 -11 0 -20 -4 -20 -10 0 -5 -15 -13 -33 -18
-18 -5 -51 -21 -73 -35 -77 -51 -219 -172 -234 -201 -18 -36 -60 -75 -80 -76
-8 0 -24 -7 -34 -15 -11 -8 -26 -15 -33 -15 -21 0 -142 -99 -239 -195 -88 -87
-119 -115 -127 -115 -2 0 -35 -30 -74 -67 -95 -93 -189 -176 -243 -216 -34
-25 -46 -40 -48 -65 -3 -27 7 -44 74 -118 154 -174 635 -634 662 -634 10 0 22
4 27 9 26 25 503 266 811 409 321 150 737 306 999 376 72 19 173 46 226 60
421 113 1076 173 1589 146 542 -29 922 -90 1585 -255 33 -8 83 -21 110 -29 28
-8 75 -21 105 -30 30 -8 87 -25 125 -36 39 -12 84 -25 100 -30 17 -5 71 -23
120 -41 50 -17 137 -46 195 -65 58 -18 191 -63 295 -99 256 -89 258 -90 355
-119 111 -33 263 -75 535 -149 158 -42 659 -141 775 -153 41 -4 84 -8 95 -10
95 -13 365 -24 474 -18 212 10 477 81 596 160 90 59 101 70 84 86 -14 15 -72
133 -204 410 -91 195 -107 218 -148 218 -18 0 -37 -4 -42 -9 -6 -6 -55 -20
-110 -31 -55 -12 -107 -28 -116 -36 -8 -8 -27 -14 -41 -14 -14 0 -39 -7 -56
-16 -27 -13 -70 -15 -281 -12 -183 2 -253 6 -263 16 -8 8 -44 12 -103 12 -65
0 -97 4 -111 15 -10 8 -39 15 -64 15 -25 0 -58 7 -74 15 -15 8 -42 15 -60 15
-17 1 -49 9 -71 20 -22 11 -56 20 -75 20 -19 0 -44 7 -54 15 -11 8 -36 15 -57
15 -20 0 -42 7 -49 15 -7 8 -29 15 -50 15 -21 0 -43 7 -50 15 -7 8 -29 15 -50
15 -21 0 -43 7 -50 15 -7 8 -28 15 -47 15 -21 0 -36 6 -39 15 -4 9 -20 15 -43
15 -20 0 -45 7 -55 15 -11 8 -36 15 -56 15 -20 0 -45 7 -56 15 -10 8 -30 15
-44 15 -14 0 -42 9 -63 20 -20 11 -45 20 -56 20 -10 0 -24 7 -31 15 -7 8 -29
15 -50 15 -24 0 -40 5 -44 15 -3 10 -19 15 -45 15 -25 0 -41 5 -45 15 -3 9
-19 15 -41 15 -22 0 -38 6 -41 15 -4 9 -19 15 -39 15 -18 0 -38 7 -45 15 -7 8
-28 15 -47 15 -19 0 -47 6 -61 14 -15 8 -44 18 -64 21 -21 3 -38 10 -38 14 0
5 -19 11 -42 15 -23 4 -45 12 -49 18 -4 5 -27 13 -53 15 -25 3 -51 12 -57 19
-6 8 -28 14 -49 14 -21 0 -43 7 -50 15 -7 8 -27 15 -44 15 -17 0 -40 7 -50 15
-11 8 -36 15 -56 15 -20 0 -45 7 -56 15 -10 8 -35 15 -55 15 -20 0 -42 7 -49
15 -8 10 -30 15 -61 15 -29 0 -53 6 -63 15 -8 9 -33 15 -58 15 -24 0 -52 6
-63 14 -11 7 -47 16 -79 19 -33 3 -62 11 -66 17 -4 6 -27 14 -51 17 -24 3 -58
11 -76 19 -17 8 -53 14 -80 14 -26 0 -57 7 -67 15 -13 10 -43 15 -86 15 -43 0
-73 5 -86 15 -13 10 -46 14 -109 15 -61 0 -97 5 -110 14 -14 9 -59 15 -142 17
-80 3 -126 8 -135 17 -8 8 -47 12 -118 12 -66 0 -126 6 -156 15 -37 11 -104
15 -264 15 -118 1 -235 6 -260 12 -81 19 -293 21 -363 4 -37 -9 -107 -16 -168
-16 -76 -1 -109 -5 -123 -15 -11 -8 -37 -15 -58 -15 -21 0 -49 -6 -61 -14 -13
-8 -63 -16 -120 -19 -87 -5 -98 -3 -107 13 -8 15 -15 17 -51 9 -23 -5 -44 -8
-46 -5 -5 5 104 64 152 82 17 6 50 20 75 31 25 11 65 28 90 37 25 10 54 22 65
27 70 31 598 196 730 228 182 44 245 55 435 76 402 42 789 45 1165 6 296 -30
305 -31 685 -102 263 -48 967 -239 1400 -379 47 -15 139 -44 205 -65 66 -20
131 -41 145 -45 14 -5 72 -23 130 -40 58 -16 119 -34 135 -40 154 -48 603
-148 695 -154 30 -2 55 -5 55 -6 0 -14 411 -29 540 -19 190 14 215 17 270 28
28 6 76 16 107 21 32 6 86 19 120 30 35 11 88 23 118 27 39 4 84 22 157 62 57
30 103 59 103 64 0 5 -24 52 -54 106 -30 53 -66 119 -81 146 -14 28 -36 66
-47 85 -11 19 -34 60 -50 90 -16 30 -43 78 -60 106 l-31 52 -94 4 c-51 2 -122
1 -156 -3 -244 -29 -285 -35 -337 -50 -46 -13 -297 -7 -525 13 -99 9 -201 16
-226 15 -25 -1 -59 4 -75 12 -16 8 -45 21 -64 30 -19 9 -36 17 -38 18 -10 4
32 53 102 121 93 90 79 78 231 217 66 61 142 133 170 160 81 80 205 191 209
187 2 -2 17 13 33 32 15 20 32 36 37 36 5 0 25 17 45 38 20 21 108 101 196
178 88 76 167 146 175 156 8 9 71 65 140 124 69 59 135 116 147 128 57 55 96
90 198 177 60 52 124 108 141 124 16 17 82 74 146 129 64 54 119 105 122 112
3 8 10 14 15 14 10 0 101 84 101 93 0 2 -22 29 -48 58 -27 30 -114 126 -193
214 -78 88 -148 165 -154 171 -5 6 -55 59 -109 118 -55 60 -123 131 -150 160
-28 29 -85 89 -126 134 -57 62 -81 82 -101 82 -15 0 -29 -7 -33 -15 -3 -9 -18
-15 -39 -15 -19 0 -40 -7 -47 -15 -7 -8 -28 -15 -47 -15 -21 0 -36 -6 -39 -15
-4 -8 -16 -15 -28 -15 -12 0 -38 -9 -59 -20 -20 -11 -45 -20 -54 -20 -10 0
-27 -7 -37 -15 -11 -8 -34 -15 -52 -15 -19 0 -34 -6 -38 -15 -3 -9 -18 -15
-39 -15 -19 0 -40 -7 -47 -15 -7 -8 -27 -15 -45 -15 -20 0 -35 -6 -39 -15 -3
-8 -17 -15 -31 -15 -15 0 -33 -7 -41 -15 -9 -8 -28 -15 -44 -15 -16 0 -30 -7
-34 -15 -3 -10 -19 -15 -44 -15 -23 0 -45 -6 -52 -15 -7 -8 -23 -15 -36 -15
-13 0 -41 -9 -61 -20 -21 -11 -43 -20 -49 -20 -7 0 -25 -7 -40 -15 -16 -8 -39
-15 -50 -15 -12 0 -27 -7 -34 -15 -7 -8 -23 -15 -37 -15 -13 0 -31 -7 -39 -15
-10 -10 -35 -15 -70 -15 -62 0 -179 -26 -209 -47 -11 -7 -38 -13 -61 -13 -23
0 -59 -6 -80 -14 -22 -7 -73 -16 -114 -20 -77 -7 -182 -28 -352 -71 -53 -14
-108 -25 -122 -25 -14 0 -27 -4 -31 -9 -3 -5 -34 -13 -70 -16 -36 -4 -65 -11
-65 -16 0 -5 -15 -9 -34 -9 -19 0 -38 -4 -41 -10 -3 -5 -19 -10 -35 -10 -17 0
-37 -10 -51 -25 -18 -18 -35 -25 -65 -25 -22 0 -49 -7 -60 -15 -13 -9 -44 -14
-94 -15 -42 0 -100 -6 -130 -14 -30 -7 -111 -16 -180 -19 -69 -3 -141 -11
-160 -17 -19 -6 -120 -15 -225 -20 -104 -4 -210 -13 -235 -19 -61 -14 -467
-15 -475 0 -4 6 -14 8 -22 5 -17 -7 -18 -35 13 469 8 138 19 338 24 445 12
256 26 521 47 867 l16 282 44 7 c65 10 829 -25 893 -41 3 0 52 -5 110 -9 58
-4 119 -9 135 -11 17 -2 73 -8 125 -14 52 -6 136 -16 185 -22 50 -5 110 -12
135 -15 25 -3 96 -12 159 -20 63 -8 153 -18 201 -21 l87 -5 6 118 c3 66 6 178
6 249 1 72 4 160 7 196 6 64 5 68 -19 84 -21 14 -32 15 -59 6 -33 -11 -307
-14 -1063 -14 -774 1 -819 2 -860 23 -35 18 -37 21 -41 80 -4 54 47 625 61
688 3 12 8 48 11 80 2 31 9 104 15 162 6 58 12 129 14 158 2 29 7 81 10 115 6
52 4 65 -9 77 -14 10 -102 13 -454 14 -240 1 -448 -1 -462 -2z m4605 -3909
c36 -26 65 -51 65 -57 0 -5 9 -19 19 -30 13 -14 18 -30 14 -48 -6 -31 -69 -98
-92 -98 -9 0 -27 -12 -41 -26 -13 -15 -39 -38 -58 -52 -19 -14 -55 -45 -80
-69 -25 -24 -49 -43 -55 -43 -5 0 -32 -22 -60 -50 -28 -27 -55 -50 -59 -50 -5
0 -28 -19 -52 -42 -49 -48 -96 -78 -121 -78 -26 0 -232 -160 -308 -239 -37
-39 -73 -71 -80 -71 -31 0 -206 -139 -325 -258 -54 -54 -93 -85 -112 -89 -17
-3 -30 -9 -30 -13 0 -5 -22 -25 -49 -44 -27 -20 -54 -49 -59 -64 -10 -29 -77
-102 -93 -102 -5 0 -37 -27 -71 -60 -33 -33 -67 -60 -74 -60 -8 0 -17 -7 -20
-15 -4 -8 -11 -15 -18 -15 -6 0 -20 -13 -31 -29 -28 -43 -91 -71 -158 -71 -36
0 -61 5 -71 15 -8 8 -30 18 -48 22 -18 3 -37 12 -41 20 -4 7 -20 13 -36 13
-15 0 -36 7 -47 15 -10 8 -28 15 -40 15 -11 0 -29 7 -40 15 -10 8 -31 15 -45
15 -15 0 -32 7 -39 15 -7 8 -29 15 -50 15 -21 0 -43 7 -50 15 -7 8 -27 15 -45
15 -18 0 -38 7 -45 15 -7 8 -27 15 -44 15 -17 0 -40 6 -51 14 -11 7 -37 16
-57 20 -20 4 -50 13 -65 21 -15 8 -39 15 -53 15 -14 0 -34 7 -44 15 -11 8 -36
15 -56 15 -20 0 -45 7 -56 15 -11 8 -41 15 -70 15 -28 0 -59 6 -70 15 -11 8
-42 14 -75 15 -38 0 -61 5 -69 15 -9 11 -34 15 -94 15 -57 0 -88 5 -102 15
-13 10 -45 14 -99 15 -51 0 -90 6 -109 15 -19 10 -59 15 -120 15 -53 1 -108 7
-131 15 -55 20 -994 22 -1013 3 -9 -9 -59 -14 -155 -17 -100 -2 -147 -7 -161
-17 -14 -9 -50 -14 -111 -14 -63 -1 -96 -5 -109 -15 -13 -10 -45 -15 -95 -15
-51 -1 -82 -5 -95 -15 -14 -10 -45 -15 -97 -15 -56 0 -80 -4 -89 -15 -8 -10
-30 -15 -65 -15 -35 0 -57 -5 -65 -15 -8 -10 -31 -15 -69 -15 -35 0 -65 -6
-77 -15 -10 -8 -35 -15 -54 -15 -19 0 -53 -9 -75 -20 -22 -11 -52 -19 -66 -20
-15 0 -32 -7 -39 -15 -7 -8 -26 -15 -42 -15 -16 0 -36 -7 -44 -15 -9 -8 -33
-15 -53 -15 -22 0 -44 -6 -51 -15 -7 -9 -29 -15 -52 -15 -22 0 -46 -7 -54 -15
-9 -9 -34 -15 -59 -15 -41 0 -48 4 -127 84 -46 46 -105 110 -132 143 -94 111
-585 604 -603 605 -13 0 -33 20 -28 28 2 4 -4 15 -15 25 -11 10 -20 14 -21 9
0 -5 -3 -2 -7 7 -6 15 -212 230 -270 284 -12 11 -39 40 -58 65 l-36 45 38 33
c22 19 58 47 82 64 l42 29 51 -26 c59 -29 206 -80 262 -90 20 -4 37 -11 37
-17 0 -5 5 -6 10 -3 14 9 110 -16 110 -28 0 -5 7 -7 15 -3 8 3 15 1 15 -5 0
-6 4 -8 9 -4 5 3 30 -2 55 -10 26 -9 51 -13 56 -10 6 3 10 2 10 -4 0 -5 8 -9
18 -9 9 1 46 -7 82 -16 36 -10 85 -20 110 -23 25 -2 49 -9 54 -14 6 -5 17 -9
25 -9 9 0 88 -16 176 -36 423 -95 796 -161 1160 -204 44 -5 118 -14 165 -19
47 -6 119 -13 160 -16 41 -3 85 -8 97 -10 32 -7 368 -24 626 -31 248 -7 737 8
992 31 246 23 410 41 655 74 36 5 110 14 165 21 55 6 117 16 138 21 21 5 72
14 115 19 122 15 472 85 652 131 367 92 664 175 770 214 41 15 91 33 110 41
160 58 288 106 305 113 93 41 519 189 547 190 10 1 47 -20 83 -46z"/>
<path d="M513 1400 c-118 -3 -176 -9 -185 -17 -6 -7 -22 -13 -34 -13 -12 0
-24 -7 -28 -15 -3 -8 -14 -15 -24 -15 -24 0 -122 -99 -122 -123 0 -8 -6 -27
-14 -43 -14 -27 -29 -305 -28 -504 0 -120 17 -283 30 -288 7 -2 12 -18 12 -36
0 -50 60 -127 120 -153 79 -34 144 -42 340 -42 208 -1 338 15 391 46 35 21 72
73 90 128 12 38 20 218 9 228 -3 2 -20 7 -38 10 -29 6 -37 2 -63 -25 -27 -31
-29 -37 -29 -123 -1 -78 -4 -93 -23 -116 -36 -41 -84 -59 -137 -49 -28 6 -75
5 -127 -2 -64 -9 -98 -9 -160 2 -43 7 -97 15 -120 17 -32 4 -49 13 -75 41 -43
46 -47 58 -61 162 -18 127 -16 663 2 717 16 48 67 89 128 104 50 11 409 12
450 0 49 -14 90 -67 98 -126 3 -27 11 -69 18 -92 l11 -43 60 0 59 0 -6 98 c-3
54 -12 117 -22 142 -19 50 -69 100 -99 100 -11 0 -27 6 -35 14 -20 17 -160 23
-388 16z"/>
<path d="M1380 1401 l-25 -7 -3 -612 c-2 -607 -2 -611 18 -622 12 -6 40 -10
63 -8 l42 3 3 618 2 617 -26 10 c-28 11 -38 11 -74 1z"/>
<path d="M7110 1401 l-25 -7 -3 -507 c-2 -473 -3 -509 -21 -537 l-18 -31 -44
68 c-24 37 -46 72 -48 78 -2 5 -17 27 -33 49 -15 21 -28 42 -28 46 0 4 -23 43
-52 86 -47 72 -76 121 -115 196 -8 15 -25 37 -38 50 -14 13 -25 33 -25 46 0
12 -5 22 -10 22 -6 0 -14 10 -19 23 -5 12 -21 39 -35 60 -14 21 -26 42 -26 48
0 5 -13 28 -30 51 -16 22 -30 47 -30 54 0 7 -4 14 -8 16 -4 2 -24 30 -44 63
-20 33 -52 75 -72 93 -34 32 -35 32 -135 32 l-101 0 0 -620 0 -619 33 -6 c19
-4 47 -5 63 -3 l29 3 6 545 c3 300 6 546 7 547 4 4 88 -82 95 -97 4 -8 18 -33
32 -55 13 -22 24 -46 25 -52 0 -7 20 -40 45 -74 25 -34 45 -67 45 -75 0 -8 4
-14 10 -14 5 0 13 -12 16 -27 4 -15 18 -39 31 -53 13 -14 26 -35 29 -47 4 -13
10 -23 15 -23 5 0 9 -7 9 -15 0 -9 7 -18 15 -21 8 -4 15 -14 15 -24 0 -9 13
-32 29 -51 17 -18 39 -53 51 -76 12 -23 25 -45 31 -48 5 -4 9 -12 9 -20 0 -8
14 -34 30 -58 17 -25 30 -49 30 -55 0 -5 7 -12 15 -16 8 -3 15 -14 15 -25 0
-11 4 -22 9 -25 5 -4 19 -25 30 -49 44 -87 48 -89 175 -95 l114 -5 7 454 c7
445 5 783 -5 792 -10 10 -76 15 -100 8z"/>
<path d="M1837 1382 c-15 -17 -17 -73 -17 -598 l0 -579 26 -28 c22 -24 33 -28
67 -25 l42 3 1 200 c1 110 2 221 3 248 l1 47 238 0 c196 0 253 3 324 19 156
34 208 94 227 263 11 94 -7 300 -27 320 -7 7 -12 19 -12 28 0 18 -40 60 -57
60 -6 0 -16 7 -23 15 -7 8 -27 15 -45 15 -18 0 -38 7 -45 15 -11 13 -62 15
-350 15 -314 0 -338 -1 -353 -18z m698 -112 c48 -30 74 -59 75 -83 0 -10 7
-25 15 -33 12 -12 15 -42 15 -138 0 -98 -3 -126 -15 -136 -8 -7 -15 -23 -15
-35 0 -14 -13 -34 -31 -49 -33 -28 -43 -29 -219 -32 -58 -1 -150 -7 -205 -13
-114 -12 -130 -10 -167 23 l-27 24 -2 209 c-1 114 -1 228 0 251 l1 44 268 -4
c264 -3 267 -3 307 -28z"/>
<path d="M3036 1374 c-16 -22 -18 -37 -12 -108 3 -44 5 -126 4 -181 -4 -134
-4 -320 0 -550 2 -104 0 -228 -3 -275 -7 -83 -6 -86 17 -98 13 -8 44 -12 69
-10 l44 3 3 600 c1 330 0 610 -3 623 -5 19 -12 22 -53 22 -39 -1 -50 -5 -66
-26z"/>
<path d="M3519 1398 c-1 -2 -3 -253 -4 -559 -2 -379 -7 -563 -14 -577 -15 -29
-14 -59 5 -87 13 -20 25 -25 59 -25 82 0 75 -53 75 563 l0 551 38 -44 c20 -24
46 -59 57 -78 11 -20 32 -49 48 -66 15 -17 27 -36 27 -44 0 -7 11 -25 26 -40
14 -15 28 -39 31 -54 3 -16 9 -28 14 -28 4 0 11 -10 14 -22 4 -13 18 -37 31
-55 13 -17 24 -37 24 -43 0 -7 14 -29 30 -50 17 -21 30 -44 30 -52 0 -8 14
-27 30 -43 17 -16 30 -35 30 -43 0 -8 14 -31 30 -52 17 -21 30 -45 30 -54 0
-9 5 -16 10 -16 6 0 14 -8 17 -17 4 -10 13 -24 20 -31 7 -7 13 -22 13 -33 0
-10 5 -19 10 -19 6 0 14 -10 19 -22 5 -13 21 -40 35 -61 14 -21 26 -44 26 -51
0 -7 15 -29 33 -50 32 -35 38 -38 109 -43 42 -3 92 -3 112 1 l36 7 0 603 c0
475 -3 606 -13 620 -9 13 -24 17 -56 14 -41 -3 -44 -5 -58 -47 -12 -34 -12
-53 -4 -87 16 -63 13 -287 -5 -410 -16 -111 -16 -152 6 -345 13 -114 13 -117
-8 -147 -12 -16 -22 -36 -22 -44 0 -9 -3 -9 -8 -2 -4 6 -17 16 -29 23 -13 6
-23 20 -23 30 0 10 -7 24 -15 31 -8 7 -15 23 -15 35 0 13 -7 25 -15 29 -8 3
-15 13 -15 22 0 9 -13 33 -30 54 -16 21 -30 41 -30 45 0 4 -13 27 -30 52 -16
24 -30 48 -30 54 0 5 -9 20 -21 32 -11 12 -30 41 -41 64 -11 23 -26 47 -34 54
-8 6 -14 17 -14 24 0 6 -13 30 -28 51 -16 21 -31 46 -35 54 -15 32 -63 110
-85 137 -31 38 -92 133 -92 142 0 15 -52 105 -73 128 -20 21 -31 23 -124 23
-57 0 -104 -1 -104 -2z"/>
<path d="M5262 1377 c-12 -13 -22 -30 -22 -39 0 -9 -7 -21 -15 -28 -8 -7 -15
-29 -15 -50 0 -21 -7 -43 -15 -50 -8 -7 -15 -27 -15 -45 0 -18 -7 -38 -15 -45
-8 -7 -15 -22 -15 -34 0 -11 -7 -30 -15 -40 -8 -11 -15 -32 -15 -47 0 -14 -7
-32 -15 -39 -8 -7 -15 -23 -15 -36 0 -13 -4 -24 -9 -24 -5 0 -12 -18 -16 -40
-4 -22 -11 -42 -16 -46 -5 -3 -9 -16 -9 -29 0 -13 -7 -30 -15 -39 -8 -8 -15
-24 -15 -36 0 -12 -6 -34 -14 -48 -16 -33 -35 -85 -46 -131 -5 -18 -13 -38
-19 -44 -6 -6 -11 -26 -11 -44 0 -21 -6 -36 -15 -39 -8 -4 -15 -16 -15 -29 0
-12 -7 -28 -15 -35 -8 -7 -15 -23 -15 -35 0 -13 -7 -25 -15 -29 -11 -4 -15
-21 -15 -60 0 -59 7 -66 66 -66 40 0 55 19 79 105 10 33 27 84 38 113 l21 52
311 0 311 0 25 -28 c38 -42 59 -87 59 -125 0 -19 7 -40 15 -47 8 -7 15 -21 15
-31 0 -31 125 -55 136 -26 6 17 -40 146 -82 230 -8 16 -14 37 -14 47 0 9 -6
23 -14 29 -8 6 -16 26 -19 44 -4 29 -25 93 -46 142 -8 19 -27 67 -58 150 -9
22 -22 54 -29 72 -8 17 -14 38 -14 46 0 9 -4 19 -10 22 -5 3 -10 13 -10 22 0
8 -6 29 -14 46 -7 18 -28 73 -45 122 -18 50 -39 106 -46 125 -8 19 -17 45 -20
58 -4 12 -18 36 -32 52 -23 28 -29 30 -97 30 -63 0 -75 -3 -94 -23z m135 -188
c15 -7 53 -88 53 -114 0 -14 4 -33 9 -43 6 -9 13 -34 16 -54 3 -21 10 -38 14
-38 5 0 11 -19 14 -42 3 -24 11 -44 16 -46 6 -2 11 -16 11 -32 0 -16 7 -30 15
-34 8 -3 15 -16 15 -29 0 -14 7 -30 15 -37 8 -7 15 -28 15 -47 0 -19 7 -47 15
-63 18 -35 8 -68 -28 -97 -23 -17 -44 -20 -223 -21 -184 -2 -198 -1 -215 17
-10 11 -26 24 -36 29 -15 9 -6 39 81 283 54 151 109 301 121 334 13 33 29 73
35 90 l11 29 19 -41 c10 -22 22 -42 27 -44z"/>
<path d="M7746 1385 c-11 -8 -32 -15 -47 -15 -14 0 -32 -7 -39 -15 -7 -8 -18
-15 -24 -15 -37 0 -116 -139 -116 -203 0 -25 -7 -64 -15 -87 -21 -60 -21 -493
0 -530 8 -14 14 -48 15 -76 0 -33 5 -56 15 -64 8 -7 15 -25 15 -40 0 -26 47
-101 79 -128 54 -44 172 -62 408 -62 204 0 299 12 362 45 44 23 88 78 104 130
27 85 48 384 31 429 -5 14 -37 16 -256 16 -247 0 -250 0 -269 -22 -21 -26 -24
-59 -7 -76 8 -8 66 -12 194 -12 l182 0 22 -56 c19 -45 21 -59 11 -80 -6 -14
-11 -53 -11 -87 0 -53 -5 -68 -32 -110 -20 -29 -43 -50 -58 -53 -14 -3 -33 -9
-42 -14 -10 -6 -93 -13 -186 -16 -141 -6 -173 -4 -202 9 -19 8 -61 17 -93 20
-63 4 -94 25 -121 81 -21 45 -25 89 -32 401 -9 367 3 450 75 503 51 38 117 45
358 40 221 -5 223 -5 263 -32 22 -14 40 -34 40 -44 0 -10 6 -24 13 -30 6 -7
14 -41 17 -75 l5 -62 64 -3 64 -3 -7 89 c-9 105 -21 146 -60 195 -24 30 -36
37 -65 37 -20 0 -45 7 -55 15 -29 22 -572 21 -600 0z"/>
<path d="M9385 1378 c-20 -22 -20 -37 -20 -598 0 -545 1 -576 19 -602 15 -23
26 -28 60 -28 22 0 47 4 54 8 10 7 12 138 10 623 l-3 614 -50 3 c-42 2 -53 -1
-70 -20z"/>
<path d="M9872 1388 c-9 -9 -12 -159 -12 -615 0 -585 1 -603 19 -613 22 -11
71 -13 95 -4 14 6 16 65 16 563 l0 556 29 -45 c16 -25 46 -60 65 -79 20 -19
36 -42 36 -51 0 -10 7 -23 15 -30 8 -7 15 -18 15 -26 0 -7 14 -33 30 -57 17
-25 30 -49 30 -54 0 -5 13 -23 30 -39 16 -16 30 -34 30 -40 0 -5 20 -39 45
-74 25 -35 45 -68 45 -73 0 -4 7 -15 15 -23 8 -9 15 -24 15 -35 0 -10 4 -19 8
-19 5 0 18 -20 30 -43 12 -24 33 -56 47 -71 14 -15 25 -36 25 -47 0 -11 7 -22
15 -25 8 -4 15 -12 15 -19 0 -6 14 -31 30 -53 17 -23 30 -48 30 -56 0 -8 4
-17 9 -21 6 -3 19 -24 31 -48 44 -86 52 -92 151 -96 49 -1 101 0 114 3 l25 6
0 620 0 620 -57 0 -58 0 -17 -54 c-14 -43 -15 -61 -7 -86 7 -19 8 -57 4 -103
-9 -89 -9 -567 0 -660 5 -52 3 -76 -9 -102 -9 -18 -16 -43 -16 -55 0 -19 -7
-15 -45 26 -25 27 -45 57 -45 66 0 9 -6 23 -12 30 -7 7 -24 36 -37 63 -13 28
-41 73 -62 102 -22 29 -39 55 -39 59 0 3 -13 23 -30 44 -16 21 -30 43 -30 49
0 6 -13 30 -30 53 -16 22 -30 47 -30 55 0 7 -4 13 -9 13 -5 0 -13 10 -17 23
-4 12 -18 38 -33 57 -14 19 -35 51 -45 70 -11 19 -22 37 -25 40 -3 3 -21 34
-40 70 -19 36 -47 81 -63 101 -15 20 -28 42 -28 48 0 6 -16 29 -36 51 l-36 40
-92 0 c-58 0 -96 -4 -104 -12z"/>
<path d="M11276 1378 c-14 -20 -16 -94 -16 -608 0 -351 4 -591 10 -600 8 -13
55 -15 322 -15 334 0 392 5 478 38 103 39 152 99 184 222 51 205 48 633 -7
786 -18 51 -96 139 -123 139 -12 0 -24 7 -28 15 -4 10 -20 15 -53 15 -26 0
-57 7 -67 15 -17 13 -75 15 -352 15 -333 0 -333 0 -348 -22z m718 -102 c59
-21 116 -65 116 -87 0 -9 7 -22 15 -29 10 -8 15 -31 15 -64 1 -28 7 -62 15
-76 21 -37 21 -466 0 -494 -9 -12 -15 -42 -15 -77 0 -38 -5 -63 -15 -73 -8 -8
-15 -17 -15 -21 0 -11 -64 -66 -88 -76 -13 -5 -51 -9 -86 -9 -34 0 -67 -5 -73
-11 -7 -7 -47 -8 -133 -1 -94 7 -131 6 -159 -4 -59 -22 -93 -17 -139 18 l-42
32 0 446 c0 245 3 469 7 498 l6 54 271 -4 c230 -3 279 -7 320 -22z"/>
<path d="M12933 1363 c-23 -27 -32 -48 -33 -74 0 -20 -7 -42 -15 -49 -8 -7
-15 -27 -15 -45 0 -18 -7 -38 -15 -45 -8 -7 -15 -23 -15 -35 0 -13 -7 -25 -15
-29 -8 -3 -15 -16 -15 -28 0 -13 -7 -32 -15 -42 -8 -11 -15 -30 -15 -43 0 -13
-4 -31 -9 -41 -30 -62 -42 -91 -47 -119 -4 -18 -10 -33 -15 -33 -5 0 -9 -11
-9 -24 0 -14 -7 -31 -15 -40 -8 -8 -15 -28 -15 -45 0 -16 -7 -36 -15 -45 -8
-8 -15 -28 -15 -43 0 -16 -7 -38 -15 -49 -8 -10 -15 -29 -15 -40 0 -12 -7 -27
-15 -34 -8 -7 -15 -22 -15 -34 0 -11 -7 -30 -15 -40 -8 -11 -15 -30 -15 -42 0
-12 -7 -27 -15 -34 -8 -7 -15 -27 -15 -45 0 -18 -7 -38 -15 -45 -36 -30 -6
-70 52 -70 44 0 58 17 96 120 19 52 41 107 47 122 l13 27 261 4 c144 2 274 7
290 12 53 15 136 -53 136 -113 0 -11 7 -33 15 -48 8 -16 15 -38 15 -49 1 -50
60 -83 126 -71 30 6 34 10 28 29 -12 43 -55 152 -69 180 -8 16 -15 35 -15 42
0 8 -7 31 -16 52 -38 89 -47 109 -60 135 -8 14 -14 35 -14 46 0 11 -6 33 -14
49 -27 51 -46 101 -46 116 0 9 -8 30 -17 49 -27 54 -30 62 -38 98 -4 19 -11
41 -15 50 -5 8 -16 38 -25 65 -21 60 -42 111 -61 147 -8 14 -14 34 -14 45 0
10 -7 31 -15 47 -8 15 -15 33 -15 40 -1 6 -9 21 -19 34 -17 19 -29 22 -93 22
-72 0 -74 0 -105 -37z m97 -107 c0 -7 11 -21 25 -30 16 -10 25 -26 25 -41 0
-14 4 -25 9 -25 5 0 12 -19 16 -42 4 -23 11 -49 15 -58 25 -50 40 -94 40 -114
0 -13 7 -29 15 -36 8 -7 15 -27 15 -45 0 -18 7 -38 15 -45 8 -7 15 -29 15 -50
0 -24 5 -40 15 -44 8 -3 15 -15 15 -27 0 -13 6 -30 14 -38 16 -18 23 -103 12
-137 -4 -12 -17 -25 -29 -28 -40 -11 -132 -6 -157 9 -33 19 -81 19 -116 0 -16
-8 -53 -15 -82 -15 -43 0 -56 4 -74 25 -12 14 -30 25 -40 25 -10 0 -18 4 -18
8 0 5 38 114 83 243 46 129 94 266 107 304 35 108 63 175 72 175 4 0 8 -6 8
-14z"/>
<path d="M13836 1338 c-3 -35 -5 -100 -4 -145 0 -46 -5 -103 -12 -127 -12 -43
-11 -134 5 -431 2 -49 6 -166 9 -260 2 -93 4 -182 5 -197 1 -26 4 -28 45 -28
82 0 76 -22 76 301 l0 289 38 1 c20 0 172 0 337 0 165 -1 310 -1 322 -1 17 0
24 -8 29 -35 3 -19 10 -38 15 -41 5 -3 9 -115 9 -249 0 -236 1 -245 20 -255
12 -6 38 -10 58 -8 l37 3 0 620 0 620 -55 0 -55 0 -5 -245 c-4 -210 -8 -250
-23 -277 l-18 -33 -330 0 c-280 0 -330 2 -335 15 -3 8 -14 17 -25 20 -18 6
-19 21 -21 263 l-3 257 -57 3 -56 3 -6 -63z"/>
</g>
</svg>
